<svg width="20" height="20" viewBox="0 0 24 24" fill="none" xmlns="http://www.w3.org/2000/svg">
<rect width="20" height="20" transform="matrix(0 1 -1 0 24 0)" fill="white"/>
<path d="M14.5 10.51V15.25C14.5 15.4489 14.579 15.6397 14.7197 15.7803C14.8603 15.921 15.0511 16 15.25 16C15.4489 16 15.6397 15.921 15.7803 15.7803C15.921 15.6397 16 15.4489 16 15.25V8.75C16 8.55109 15.921 8.36032 15.7803 8.21967C15.6397 8.07902 15.4489 8 15.25 8H8.75C8.55109 8 8.36032 8.07902 8.21967 8.21967C8.07902 8.36032 8 8.55109 8 8.75C8 8.94891 8.07902 9.13968 8.21967 9.28033C8.36032 9.42098 8.55109 9.5 8.75 9.5H13.389L8.217 14.722C8.14766 14.792 8.09279 14.875 8.05552 14.9662C8.01824 15.0574 7.9993 15.155 7.99976 15.2535C8.00022 15.3521 8.02009 15.4495 8.05822 15.5404C8.09635 15.6312 8.15201 15.7137 8.222 15.783C8.29199 15.8523 8.37496 15.9072 8.46616 15.9445C8.55736 15.9818 8.65501 16.0007 8.75354 16.0002C8.85206 15.9998 8.94953 15.9799 9.04037 15.9418C9.13122 15.9036 9.21366 15.848 9.283 15.778L14.5 10.509V10.51Z" fill="#212121"/>
<path d="M12 22C6.477 22 2 17.523 2 12C2 6.477 6.477 2 12 2C17.523 2 22 6.477 22 12C22 17.523 17.523 22 12 22ZM3.5 12C3.5 14.2543 4.39553 16.4163 5.98959 18.0104C7.58365 19.6045 9.74566 20.5 12 20.5C14.2543 20.5 16.4163 19.6045 18.0104 18.0104C19.6045 16.4163 20.5 14.2543 20.5 12C20.5 9.74566 19.6045 7.58365 18.0104 5.98959C16.4163 4.39553 14.2543 3.5 12 3.5C9.74566 3.5 7.58365 4.39553 5.98959 5.98959C4.39553 7.58365 3.5 9.74566 3.5 12Z" fill="#212121"/>
</svg>
