<svg width="20" height="20" viewBox="0 0 24 24" fill="none" xmlns="http://www.w3.org/2000/svg">
<path d="M-9.53674e-07 12C-9.53674e-07 18.6276 5.3724 24 12 24C18.6276 24 24 18.6276 24 12C24 5.3724 18.6276 0 12 0C5.3724 0 -9.53674e-07 5.3724 -9.53674e-07 12ZM15 15.9L15 10.212L8.7396 16.5336C8.65639 16.6176 8.55746 16.6844 8.44844 16.7301C8.33943 16.7759 8.22247 16.7997 8.10424 16.8003C7.98601 16.8008 7.86883 16.7781 7.75939 16.7334C7.64995 16.6887 7.55039 16.6228 7.4664 16.5396C7.38241 16.4564 7.31562 16.3575 7.26986 16.2484C7.22411 16.1394 7.20027 16.0225 7.19971 15.9042C7.19915 15.786 7.22189 15.6688 7.26662 15.5594C7.31135 15.45 7.37719 15.3504 7.4604 15.2664L13.668 9L8.1012 9C7.86251 9 7.63359 8.90518 7.4648 8.7364C7.29602 8.56761 7.2012 8.3387 7.2012 8.1C7.2012 7.86131 7.29602 7.63239 7.4648 7.4636C7.63359 7.29482 7.86251 7.2 8.1012 7.2H15.9012C16.1397 7.20032 16.3683 7.29528 16.5368 7.46403C16.7053 7.63278 16.8 7.86151 16.8 8.1V15.9C16.8 16.1387 16.7052 16.3676 16.5364 16.5364C16.3676 16.7052 16.1387 16.8 15.9 16.8C15.6613 16.8 15.4324 16.7052 15.2636 16.5364C15.0948 16.3676 15 16.1387 15 15.9Z" fill="#212121"/>
</svg>
